<?xml version="1.0" standalone="no"?><svg xmlns="http://www.w3.org/2000/svg" viewBox="0 0 1440 320"><path fill="#F7C831" fill-opacity="1" d="M0,0L26.7,16C53.3,32,107,64,160,69.3C213.3,75,267,53,320,80C373.3,107,427,181,480,218.7C533.3,256,587,256,640,229.3C693.3,203,747,149,800,138.7C853.3,128,907,160,960,176C1013.3,192,1067,192,1120,186.7C1173.3,181,1227,171,1280,144C1333.3,117,1387,75,1413,53.3L1440,32L1440,320L1413.3,320C1386.7,320,1333,320,1280,320C1226.7,320,1173,320,1120,320C1066.7,320,1013,320,960,320C906.7,320,853,320,800,320C746.7,320,693,320,640,320C586.7,320,533,320,480,320C426.7,320,373,320,320,320C266.7,320,213,320,160,320C106.7,320,53,320,27,320L0,320Z"></path></svg>